<?xml version="1.0" encoding="utf-8"?>
<!-- Generator: Adobe Illustrator 18.0.0, SVG Export Plug-In . SVG Version: 6.00 Build 0)  -->
<!DOCTYPE svg PUBLIC "-//W3C//DTD SVG 1.1//EN" "http://www.w3.org/Graphics/SVG/1.1/DTD/svg11.dtd">
<svg version="1.1" id="Layer_1" xmlns="http://www.w3.org/2000/svg" xmlns:xlink="http://www.w3.org/1999/xlink" x="0px" y="0px"
	 viewBox="0 0 141.4 159.1" enable-background="new 0 0 141.4 159.1" xml:space="preserve">
<rect display="none" fill="#24CABC" width="99.9" height="117.9"/>
<linearGradient id="SVGID_1_" gradientUnits="userSpaceOnUse" x1="7.9864" y1="26.7699" x2="109.9075" y2="127.3472">
	<stop  offset="0" style="stop-color:#231F20;stop-opacity:0.2"/>
	<stop  offset="0.6699" style="stop-color:#000000;stop-opacity:0"/>
</linearGradient>
<polygon fill="url(#SVGID_1_)" points="1,81.6 78.5,159.1 141.4,97.6 51.4,6.9 20.1,15 17.7,26.6 39.7,69.4 "/>
<path opacity="0.2" d="M51.8,63.6c0,3.7-0.6,7.1-1.9,10.1c-1.3,3-3.1,5.5-5.6,7.6c-2.4,2.1-5.5,3.7-9,4.9c-3.6,1.1-7.6,1.7-12.2,1.7
	c-4,0-7.9-0.4-11.7-1.3C7.7,85.8,4.2,84.5,1,82.9V66.5c1.8,0.9,3.7,1.7,5.5,2.5c1.9,0.8,3.8,1.5,5.7,2.2c1.9,0.6,3.8,1.2,5.8,1.5
	c1.9,0.4,3.8,0.6,5.7,0.6c1.9,0,3.6-0.2,5-0.7c1.4-0.4,2.5-1,3.4-1.8c0.9-0.8,1.5-1.7,1.9-2.8c0.4-1.1,0.6-2.3,0.6-3.6
	c0-1.6-0.3-2.9-1-4.1c-0.7-1.2-1.6-2.3-2.8-3.4c-1.2-1-2.6-2.1-4.3-3c-1.7-1-3.6-2-5.7-3.1c-1.7-0.9-3.7-2-5.9-3.3
	c-2.2-1.3-4.2-2.9-6.1-4.8c-1.9-1.9-3.5-4.2-4.8-7C2.6,33,2,29.7,2,25.9c0-3.7,0.6-7.1,1.9-10c1.2-2.9,3-5.4,5.3-7.5
	c2.3-2,5-3.6,8.3-4.6c3.2-1.1,6.9-1.6,10.9-1.6c2,0,4,0.1,5.9,0.4c1.9,0.3,3.8,0.6,5.7,1.1c1.9,0.5,3.8,1.1,5.7,1.8
	c1.9,0.7,3.9,1.6,5.9,2.5l-5.7,13.7c-1.7-0.8-3.3-1.5-4.8-2.1c-1.5-0.6-2.9-1.1-4.3-1.5c-1.4-0.4-2.8-0.7-4.1-0.9
	c-1.3-0.2-2.7-0.3-4.1-0.3c-3,0-5.2,0.8-6.8,2.4c-1.6,1.6-2.4,3.7-2.4,6.3c0,1.4,0.2,2.6,0.7,3.7c0.5,1.1,1.2,2.1,2.3,3
	c1,0.9,2.4,1.9,4,2.9c1.7,1,3.7,2.1,6,3.4c2.8,1.5,5.5,3.1,7.9,4.6c2.4,1.6,4.5,3.3,6.2,5.2c1.7,1.9,3.1,4.1,4,6.5
	C51.3,57.5,51.8,60.3,51.8,63.6z"/>
<path fill="#FFFFFF" d="M51.8,62.4c0,3.7-0.6,7.1-1.9,10.1c-1.3,3-3.1,5.5-5.6,7.6c-2.4,2.1-5.5,3.7-9,4.9
	c-3.6,1.1-7.6,1.7-12.2,1.7c-4,0-7.9-0.4-11.7-1.3C7.7,84.5,4.2,83.3,1,81.6V65.2c1.8,0.9,3.7,1.7,5.5,2.5c1.9,0.8,3.8,1.5,5.7,2.2
	c1.9,0.6,3.8,1.2,5.8,1.5c1.9,0.4,3.8,0.6,5.7,0.6c1.9,0,3.6-0.2,5-0.7c1.4-0.4,2.5-1,3.4-1.8c0.9-0.8,1.5-1.7,1.9-2.8
	c0.4-1.1,0.6-2.3,0.6-3.6c0-1.6-0.3-2.9-1-4.1c-0.7-1.2-1.6-2.3-2.8-3.4c-1.2-1-2.6-2.1-4.3-3c-1.7-1-3.6-2-5.7-3.1
	c-1.7-0.9-3.7-2-5.9-3.3c-2.2-1.3-4.2-2.9-6.1-4.8c-1.9-1.9-3.5-4.2-4.8-7c-1.3-2.7-1.9-6-1.9-9.8c0-3.7,0.6-7.1,1.9-10
	c1.2-2.9,3-5.4,5.3-7.5c2.3-2,5-3.6,8.3-4.6C20.6,1.5,24.3,1,28.3,1c2,0,4,0.1,5.9,0.4C36.1,1.7,38,2,39.9,2.5
	c1.9,0.5,3.8,1.1,5.7,1.8c1.9,0.7,3.9,1.6,5.9,2.5l-5.7,13.7c-1.7-0.8-3.3-1.5-4.8-2.1c-1.5-0.6-2.9-1.1-4.3-1.5
	c-1.4-0.4-2.8-0.7-4.1-0.9c-1.3-0.2-2.7-0.3-4.1-0.3c-3,0-5.2,0.8-6.8,2.4c-1.6,1.6-2.4,3.7-2.4,6.3c0,1.4,0.2,2.6,0.7,3.7
	c0.5,1.1,1.2,2.1,2.3,3c1,0.9,2.4,1.9,4,2.9c1.7,1,3.7,2.1,6,3.4c2.8,1.5,5.5,3.1,7.9,4.6c2.4,1.6,4.5,3.3,6.2,5.2
	c1.7,1.9,3.1,4.1,4,6.5C51.3,56.2,51.8,59.1,51.8,62.4z"/>
</svg>
