<?xml version="1.0" encoding="utf-8"?>
<!-- Generator: Adobe Illustrator 18.0.0, SVG Export Plug-In . SVG Version: 6.00 Build 0)  -->
<!DOCTYPE svg PUBLIC "-//W3C//DTD SVG 1.1//EN" "http://www.w3.org/Graphics/SVG/1.1/DTD/svg11.dtd">
<svg version="1.1" xmlns="http://www.w3.org/2000/svg" xmlns:xlink="http://www.w3.org/1999/xlink" x="0px" y="0px"
	 viewBox="0 0 309.3 166.1" enable-background="new 0 0 309.3 166.1" xml:space="preserve">
<g id="Layer_1" display="none">
	<polygon display="inline" fill="#F7941E" points="784.3,406 784.3,0 -15.7,0 -15.7,600 590.3,600 	"/>
	
		<text transform="matrix(1 0 0 1 684.9612 581.2812)" display="inline" fill="#F7941E" font-family="'MyriadPro-Bold'" font-size="87.909">Ai</text>
</g>
<g id="iMac">
	<path fill="#3A3A3A" d="M-326.6,172.4h-259.1c-11,0-12,5.4-12,12v171.3c0,6.6,0,12,12,12h101.5c0,0-0.7,9.2-1.9,12.6
		c-1.2,3.3-2.4,4.8-5.2,7.7c-2.8,2.8-7,7.4-7,7.4s-3,2.8,2.5,3.7c5.5,0.8,14.2,0.5,18.5,0.5s54.8,0.1,54.8,0.1s4.2-0.4,6.2-0.6
		c2.1-0.2,5.9-1,3.3-3.8c-2.6-2.8-7.2-8.2-7.2-8.2l-1.8-2.2c0,0-2.3-3.3-3-7.6c-0.6-3.8-1.3-6.8-1.3-9.5h99.8c12,0,12-5.4,12-12
		V184.4C-314.7,177.7-314.7,172.4-326.6,172.4z M-326.2,330.3h-260.5V184h260.5V330.3z"/>
	<rect x="-586.7" y="184" fill="#16A9C1" width="260.5" height="146.2"/>
	<path opacity="0.3" fill="#FFFFFF" d="M-586.7,184h260.5v136.2C-326.2,320.3-573.2,187-586.7,184z"/>
	<g>
		<path fill="#24CABC" d="M-114.4-176h-259.1c-11,0-12,5.4-12,12V7.3c0,6.6,0,12,12,12H-272c0,0-0.7,9.2-1.9,12.6
			c-1.2,3.3-2.4,4.8-5.2,7.7c-2.8,2.8-7,7.4-7,7.4s-3,2.8,2.5,3.7c5.5,0.8,14.2,0.5,18.5,0.5s54.7,0.1,54.7,0.1s4.2-0.4,6.2-0.6
			c2.1-0.2,5.9-1,3.3-3.8c-2.6-2.8-7.2-8.2-7.2-8.2l-1.8-2.2c0,0-2.3-3.3-3-7.6c-0.6-3.8-1.3-6.8-1.3-9.5h99.8c12,0,12-5.4,12-12
			V-164C-102.4-170.6-102.4-176-114.4-176z M-113.9-18.1h-260.5v-146.2h260.5V-18.1z"/>
		<rect x="-374.4" y="-164.3" fill="#FFFFFF" width="260.5" height="146.2"/>
		<path fill="#F5F5F5" d="M-374.4-164.3h260.5v136.2C-113.9-28.1-361-161.4-374.4-164.3z"/>
	</g>
</g>
<g id="Layer_7">
	<text transform="matrix(1 0 0 1 110 -67.6665)" display="none" font-family="'DroidSans-Bold'" font-size="72">S</text>
</g>
<g id="MacBook_AIR">
	<path fill="#3A3A3A" d="M-638.2,328.8c0.1-0.4,0.1-0.8,0.1-1.2v-84c0-2.9-2.4-5.3-5.3-5.3h-123.8c-2.9,0-5.3,2.4-5.3,5.3v84
		c0,0.4,0.1,0.8,0.1,1.2h-26v1.2c19,4.4,34.3,3.7,34.3,3.7s91.3,0,118.2,0c26.9,0,33.7-3.7,33.7-3.7v-1.2H-638.2z M-698.2,242.2
		c0.2,0,0.4,0.2,0.4,0.4c0,0.2-0.2,0.4-0.4,0.4c-0.2,0-0.4-0.2-0.4-0.4C-698.6,242.3-698.4,242.2-698.2,242.2z M-705.1,241.6
		c0.5,0,0.8,0.4,0.8,0.8s-0.4,0.8-0.8,0.8c-0.5,0-0.8-0.4-0.8-0.8S-705.6,241.6-705.1,241.6z M-712.3,242.2c0.2,0,0.4,0.2,0.4,0.4
		c0,0.2-0.2,0.4-0.4,0.4c-0.2,0-0.4-0.2-0.4-0.4C-712.7,242.3-712.5,242.2-712.3,242.2z M-765.1,245.2H-645v75.1h-120.1V245.2z"/>
	<rect x="-765" y="245.2" fill="#16A9C1" width="120" height="75.1"/>
	<path opacity="0.3" fill="#FFFFFF" d="M-765,245h120v64.8C-645,309.8-751.5,248-765,245z"/>
	<g>
		<path fill="#24CABC" d="M-274.6,45.9c0.1-0.4,0.1-0.8,0.1-1.2v-84c0-2.9-2.4-5.3-5.3-5.3h-123.8c-2.9,0-5.3,2.4-5.3,5.3v84
			c0,0.4,0.1,0.8,0.1,1.2h-26V47c19,4.4,34.3,3.7,34.3,3.7s91.3,0,118.2,0c26.9,0,33.7-3.7,33.7-3.7v-1.2H-274.6z M-334.5-40.8
			c0.2,0,0.4,0.2,0.4,0.4c0,0.2-0.2,0.4-0.4,0.4c-0.2,0-0.4-0.2-0.4-0.4C-334.9-40.6-334.7-40.8-334.5-40.8z M-341.5-41.3
			c0.5,0,0.8,0.4,0.8,0.8s-0.4,0.8-0.8,0.8c-0.5,0-0.8-0.4-0.8-0.8S-342-41.3-341.5-41.3z M-348.6-40.8c0.2,0,0.4,0.2,0.4,0.4
			c0,0.2-0.2,0.4-0.4,0.4c-0.2,0-0.4-0.2-0.4-0.4C-349-40.6-348.9-40.8-348.6-40.8z M-401.4-37.8h120.1v75.1h-120.1V-37.8z"/>
		<rect x="-401.4" y="-37.8" fill="#FFFFFF" width="120" height="75.1"/>
		<path fill="#F5F5F5" d="M-401.4-37.9h120v64.8C-281.4,26.8-387.9-35-401.4-37.9z"/>
	</g>
</g>
<g id="iPad">
	<path fill="#3A3A3A" d="M-818,221.1h-92.2c-2,0-3.6,1.6-3.6,3.6v122.5c0,2,1.6,3.6,3.6,3.6h92.2c2,0,3.6-1.6,3.6-3.6V224.7
		C-814.4,222.7-816,221.1-818,221.1z M-864.3,228.3c0.3,0,0.6,0.3,0.6,0.6c0,0.3-0.3,0.6-0.6,0.6c-0.3,0-0.6-0.3-0.6-0.6
		C-864.9,228.5-864.6,228.3-864.3,228.3z M-864.1,348.6c-1.6,0-2.9-1.3-2.9-2.9s1.3-2.9,2.9-2.9c1.6,0,2.9,1.3,2.9,2.9
		S-862.5,348.6-864.1,348.6z M-824.5,339.8h-79.2V234.1h79.2V339.8z"/>
	<rect x="-903.7" y="234.1" fill="#16A9C1" width="79.2" height="105.8"/>
	<path opacity="0.3" fill="#FFFFFF" d="M-903.7,234.1h79.2V329C-824.5,329-890.3,237.1-903.7,234.1z"/>
	<g>
		<path fill="#24CABC" d="M-101.4-42.3h-64.5c-1.4,0-2.5,1.1-2.5,2.5v85.8c0,1.4,1.1,2.5,2.5,2.5h64.5c1.4,0,2.5-1.1,2.5-2.5v-85.8
			C-98.9-41.2-100-42.3-101.4-42.3z M-133.8-37.3c0.2,0,0.4,0.2,0.4,0.4c0,0.2-0.2,0.4-0.4,0.4c-0.2,0-0.4-0.2-0.4-0.4
			C-134.2-37.2-134-37.3-133.8-37.3z M-133.7,46.9c-1.1,0-2-0.9-2-2c0-1.1,0.9-2,2-2c1.1,0,2,0.9,2,2
			C-131.6,46-132.5,46.9-133.7,46.9z M-105.9,40.7h-55.5v-74h55.5V40.7z"/>
		<rect x="-161.4" y="-33.3" fill="#FFFFFF" width="55.5" height="74.1"/>
		<path fill="#F5F5F5" d="M-161.4-33.3h55.5v66.4C-105.9,33.2-151.9-31.2-161.4-33.3z"/>
	</g>
</g>
<g id="iPhone">
	<path fill="#3A3A3A" d="M-996.5,246.5L-996.5,246.5c-0.1-0.2-0.3-0.4-0.6-0.4h-4.9c-0.3,0-0.5,0.1-0.5,0.4h-19.6
		c-3.5,0-5.5,2.9-5.5,5.7v5.2c-0.3,0-0.5,0.1-0.5,0.3v3c0,0.2,0.2,0.3,0.5,0.3v3.9c-0.3,0-0.5,0.1-0.5,0.3v2.3
		c0,0.2,0.2,0.2,0.5,0.3v3.7c-0.3,0-0.5,0.1-0.5,0.3v2.3c0,0.2,0.2,0.2,0.5,0.3v45.8c0,3.2,2.3,5.6,6.1,5.6h24.1
		c4,0,7.1-1.2,7.1-6.2v-66.7C-990.4,249.3-992.2,246.5-996.5,246.5z M-1009,249.7c0.4,0,0.7,0.3,0.7,0.7c0,0.4-0.3,0.7-0.7,0.7
		c-0.4,0-0.7-0.3-0.7-0.7C-1009.8,250-1009.4,249.7-1009,249.7z M-1011.8,252.7h5.6v0c0.4,0,0.7,0.3,0.7,0.7c0,0.4-0.3,0.7-0.7,0.7
		v0h0c0,0,0,0,0,0c0,0,0,0,0,0h-5.5c0,0,0,0,0,0c-0.4,0-0.7-0.3-0.7-0.7C-1012.5,253-1012.2,252.7-1011.8,252.7z M-1009.1,323.6
		c-2,0-3.5-1.6-3.5-3.5c0-2,1.6-3.5,3.5-3.5c2,0,3.5,1.6,3.5,3.5C-1005.5,322-1007.1,323.6-1009.1,323.6z M-993.1,314.2h-31.9v-56.4
		h31.9V314.2z"/>
	<rect x="-1025" y="257.8" fill="#16A9C1" width="31.9" height="56.4"/>
	<path opacity="0.3" fill="#FFFFFF" d="M-1025,257.8h31.9v47C-993.1,304.8-1011.5,260.8-1025,257.8z"/>
	<g>
		<path fill="#24CABC" d="M-177.1-27.7L-177.1-27.7c-0.1-0.2-0.3-0.4-0.6-0.4h-4.9c-0.3,0-0.5,0.1-0.5,0.4h-19.6
			c-3.5,0-5.5,2.9-5.5,5.7v5.2c-0.3,0-0.5,0.1-0.5,0.3v3c0,0.2,0.2,0.3,0.5,0.3v3.9c-0.3,0-0.5,0.1-0.5,0.3v2.3
			c0,0.2,0.2,0.2,0.5,0.3v3.7c-0.3,0-0.5,0.1-0.5,0.3v2.3c0,0.2,0.2,0.2,0.5,0.3v45.8c0,3.2,2.3,5.6,6.1,5.6h24.1
			c4,0,7.1-1.2,7.1-6.2v-66.7C-170.9-25-172.7-27.7-177.1-27.7z M-189.6-24.6c0.4,0,0.7,0.3,0.7,0.7c0,0.4-0.3,0.7-0.7,0.7
			c-0.4,0-0.7-0.3-0.7-0.7C-190.3-24.3-190-24.6-189.6-24.6z M-192.3-21.6h5.6v0c0.4,0,0.7,0.3,0.7,0.7c0,0.4-0.3,0.7-0.7,0.7v0h0
			c0,0,0,0,0,0c0,0,0,0,0,0h-5.5c0,0,0,0,0,0c-0.4,0-0.7-0.3-0.7-0.7C-193.1-21.2-192.7-21.6-192.3-21.6z M-189.6,49.4
			c-2,0-3.5-1.6-3.5-3.5c0-2,1.6-3.5,3.5-3.5c2,0,3.5,1.6,3.5,3.5C-186.1,47.8-187.6,49.4-189.6,49.4z M-173.6,40h-31.9v-56.4h31.9
			V40z"/>
		<rect x="-205.5" y="-16.4" fill="#FFFFFF" width="31.9" height="56.4"/>
		<path fill="#F5F5F5" d="M-205.5-16.4h31.9v47C-173.6,30.6-192.1-13.5-205.5-16.4z"/>
	</g>
</g>
<g id="Nexus">
	<path fill="#3A3A3A" d="M-949.7,244h-6.8c-17.8,0-18.3,3.9-18.3,7.5V320c0,4.7,0.3,7.9,18.3,7.9h6.8c17.5,0,18.4-2.7,18.4-8v-68.5
		C-931.3,247.2-932,244-949.7,244z M-937.5,247.1c0.5,0,1,0.4,1,1s-0.4,1-1,1c-0.5,0-1-0.4-1-1S-938,247.1-937.5,247.1z
		 M-948.6,245.4l-0.7,0.8h-7.6l-0.6-0.8H-948.6z M-933.7,318.1h-38.9v-64.2h38.9V318.1z"/>
	<rect x="-972.7" y="253.8" fill="#16A9C1" width="39" height="64.3"/>
	<path opacity="0.3" fill="#FFFFFF" d="M-972.5,253.8h38.9V308C-933.7,308-959.1,256.8-972.5,253.8z"/>
	<g>
		<path fill="#24CABC" d="M-233.7-30.2h-6.8c-17.8,0-18.3,3.9-18.3,7.5v68.6c0,4.7,0.3,7.9,18.3,7.9h6.8c17.5,0,18.4-2.7,18.4-8
			v-68.5C-215.3-26.9-215.9-30.2-233.7-30.2z M-221.4-27.1c0.5,0,1,0.4,1,1c0,0.5-0.4,1-1,1c-0.5,0-1-0.4-1-1
			C-222.3-26.6-221.9-27.1-221.4-27.1z M-232.6-28.8l-0.7,0.8h-7.6l-0.6-0.8H-232.6z M-217.6,43.9h-38.9v-64.2h38.9V43.9z"/>
		<rect x="-256.6" y="-20.4" fill="#FFFFFF" width="39" height="64.3"/>
		<path fill="#F5F5F5" d="M-256.5-20.4h38.9v54.2C-217.6,33.8-243-17.4-256.5-20.4z"/>
	</g>
	<g>
		<path fill="#24CABC" d="M262.8,146.7c0.1-0.6,0.2-1.3,0.2-2V8.6c0-4.8-3.8-8.6-8.6-8.6H53.9c-4.7,0-8.6,3.9-8.6,8.6v136.1
			c0,0.7,0.1,1.3,0.2,2H3.4v1.9c30.7,7.1,55.5,6,55.5,6s147.9,0,191.5,0c43.6,0,54.7-6,54.7-6v-1.9H262.8z M165.6,6.3
			c0.4,0,0.7,0.3,0.7,0.7c0,0.4-0.3,0.7-0.7,0.7c-0.4,0-0.7-0.3-0.7-0.7C165,6.6,165.3,6.3,165.6,6.3z M154.3,5.5
			c0.7,0,1.3,0.6,1.3,1.3s-0.6,1.3-1.3,1.3c-0.7,0-1.3-0.6-1.3-1.3S153.6,5.5,154.3,5.5z M142.8,6.3c0.4,0,0.7,0.3,0.7,0.7
			c0,0.4-0.3,0.7-0.7,0.7c-0.4,0-0.7-0.3-0.7-0.7C142.1,6.6,142.4,6.3,142.8,6.3z M57.2,11.2h194.6v121.7H57.2V11.2z"/>
		<rect x="57.3" y="11.2" fill="#FFFFFF" width="194.5" height="121.7"/>
		<path fill="#F5F5F5" d="M57.3,10.9h194.5v104.9C251.8,115.9,79.2,15.7,57.3,10.9z"/>
	</g>
	<path fill="#24CABC" d="M151.2,61.9v94.3c0,2,1.6,3.7,3.7,3.7h125.4c2,0,3.7-1.6,3.7-3.7V61.9c0-2-1.6-3.7-3.7-3.7H154.8
		C152.8,58.3,151.2,59.9,151.2,61.9z M158.5,109.3c0-0.3,0.3-0.6,0.6-0.6c0.3,0,0.6,0.3,0.6,0.6c0,0.3-0.3,0.6-0.6,0.6
		C158.7,109.9,158.5,109.6,158.5,109.3z M281.6,109.1c0,1.6-1.3,2.9-2.9,2.9s-2.9-1.3-2.9-2.9c0-1.6,1.3-2.9,2.9-2.9
		S281.6,107.5,281.6,109.1z M272.6,68.6v81.1H164.4V68.6H272.6z"/>
	<rect x="164.4" y="68.6" fill="#FFFFFF" width="108.3" height="81.1"/>
	<path fill="#F5F5F5" d="M272.7,149.7V68.6h-97.1C175.6,68.6,269.7,135.9,272.7,149.7z"/>
	<g>
		<path fill="#24CABC" d="M133,84.2L133,84.2c-0.1-0.2-0.3-0.4-0.6-0.4h-4.9c-0.3,0-0.5,0.1-0.5,0.4h-19.6c-3.5,0-5.5,2.9-5.5,5.7
			v5.2c-0.3,0-0.5,0.1-0.5,0.3v3c0,0.2,0.2,0.3,0.5,0.3v3.9c-0.3,0-0.5,0.1-0.5,0.3v2.3c0,0.2,0.2,0.2,0.5,0.3v3.7
			c-0.3,0-0.5,0.1-0.5,0.3v2.3c0,0.2,0.2,0.2,0.5,0.3v45.8c0,3.2,2.3,5.6,6.1,5.6h24.1c4,0,7.1-1.2,7.1-6.2V90.6
			C139.2,86.9,137.3,84.2,133,84.2z M120.5,87.4c0.4,0,0.7,0.3,0.7,0.7c0,0.4-0.3,0.7-0.7,0.7c-0.4,0-0.7-0.3-0.7-0.7
			C119.8,87.7,120.1,87.4,120.5,87.4z M117.7,90.4h5.6v0c0.4,0,0.7,0.3,0.7,0.7c0,0.4-0.3,0.7-0.7,0.7v0h0c0,0,0,0,0,0c0,0,0,0,0,0
			h-5.5c0,0,0,0,0,0c-0.4,0-0.7-0.3-0.7-0.7C117,90.7,117.3,90.4,117.7,90.4z M120.5,161.3c-2,0-3.5-1.6-3.5-3.5
			c0-2,1.6-3.5,3.5-3.5c2,0,3.5,1.6,3.5,3.5C124,159.7,122.4,161.3,120.5,161.3z M136.5,151.9h-31.9V95.5h31.9V151.9z"/>
		<rect x="104.5" y="95.5" fill="#FFFFFF" width="31.9" height="56.4"/>
		<path fill="#F5F5F5" d="M104.5,95.5h31.9v47C136.5,142.5,118,98.5,104.5,95.5z"/>
	</g>
	<g>
		<path fill="#24CABC" d="M68.1,76.4h-6.8c-17.8,0-18.3,3.9-18.3,7.5v68.6c0,4.7,0.3,7.9,18.3,7.9h6.8c17.5,0,18.4-2.7,18.4-8V83.9
			C86.5,79.7,85.8,76.4,68.1,76.4z M80.3,79.6c0.5,0,1,0.4,1,1s-0.4,1-1,1c-0.5,0-1-0.4-1-1S79.8,79.6,80.3,79.6z M69.2,77.8
			l-0.7,0.8h-7.6l-0.6-0.8H69.2z M84.1,150.5H45.3V86.3h38.9V150.5z"/>
		<rect x="45.1" y="86.2" fill="#FFFFFF" width="39" height="64.3"/>
		<path fill="#F5F5F5" d="M45.3,86.2h38.9v54.2C84.1,140.4,58.7,89.2,45.3,86.2z"/>
	</g>
	<g>
		<path fill="#24CABC" d="M164.2-426.1c-1.1,0.2-9.3,0.2-9.9,0.2c-1.4,0-3-1.2-3-4.5V-493H141h-3.2h-11.7
			c-10.3,0-15.1,3.9-15.1,16.5c0,8.2,1.3,12.7,1.3,20c0,4.1-3,8.3-10,8.6v10.1c7,0.2,10,4.6,10,8.7c0,7.4-1.2,11.4-1.2,19.8
			c0,12.7,4.7,16.4,15,16.4h7.2v-8h-2c-4.8,0-6.2-2-6.2-8.5c0-6.4,0.2-12.1,0.2-19.3c0-8.9-3-12.5-9-13.9v-0.5c6-1.4,9-4.8,9-13.8
			c0-6.9-0.3-12.8-0.3-19c0-6.5,1.5-8.1,6.4-8.1h6v53c0,10,5.9,17,13.4,17c3,0,10.6,0,14.1,0L164.2-426.1z"/>
		<path fill="#24CABC" d="M189.7-469.4c14.5,0,22.2,10.5,22.2,25.5c0,2.4-0.2,4.6-0.5,5.9h-34.1c1.1,9.7,7.2,15.2,15.9,15.2
			c4.6,0,8.5-1.4,12.5-3.9l4.3,7.9c-5.1,3.4-11.6,5.8-18.4,5.8c-14.9,0-26.5-10.4-26.5-28.1C165-458.6,177.2-469.4,189.7-469.4z
			 M201-446c0-8.5-3.6-13.7-10.9-13.7c-6.3,0-11.8,4.7-12.9,13.7H201z"/>
		<path fill="#24CABC" d="M218.4-428.6c4.8,3.7,9.4,6,14.9,6c5.8,0,8.5-2.7,8.5-6.5c0-4.5-5.8-6.5-11.5-8.6
			c-7.1-2.6-15.1-6.7-15.1-15.6c0-9.4,7.5-16.1,19.6-16.1c7.4,0,13.4,3.1,17.8,6.5l-5.8,7.7c-3.7-2.7-7.5-4.6-11.8-4.6
			c-5.4,0-7.9,2.5-7.9,5.9c0,4.2,5.4,5.9,11.2,8c7.3,2.7,15.4,6.2,15.4,16.3c0,9.2-7.3,16.6-20.9,16.6c-7.3,0-15.1-3.2-20.3-7.4
			L218.4-428.6z"/>
		<path fill="#24CABC" d="M259.4-428.6c4.8,3.7,9.4,6,14.9,6c5.8,0,8.5-2.7,8.5-6.5c0-4.5-5.8-6.5-11.5-8.6
			c-7.1-2.6-15.1-6.7-15.1-15.6c0-9.4,7.5-16.1,19.6-16.1c7.4,0,13.4,3.1,17.8,6.5l-5.8,7.7c-3.7-2.7-7.5-4.6-11.8-4.6
			c-5.4,0-7.9,2.5-7.9,5.9c0,4.2,5.4,5.9,11.2,8c7.3,2.7,15.4,6.2,15.4,16.3c0,9.2-7.3,16.6-20.9,16.6c-7.3,0-15.1-3.2-20.3-7.4
			L259.4-428.6z"/>
		<path fill="#24CABC" d="M296.9-401.5c4.9,0,6.2-1.8,6.2-8.2c0-6.4-0.5-12-0.5-19.2c0-8.9,2.8-12.3,8.7-13.8v-0.5
			c-5.9-1.4-8.7-4.8-8.7-13.8c0-6.9,0.5-12.9,0.5-19.2c0-6.5-1.3-8.2-6.2-8.2h-2.2v-9.2h7.4c10.3,0,15.1,4.1,15.1,16.7
			c0,8.2-1.2,12.8-1.2,20.1c0,4.1,2.5,8.5,10.1,8.7v10.1c-7.6,0.2-10.1,4.6-10.1,8.7c0,7.4,1.2,11.8,1.2,20.1
			c0,12.7-4.7,16.7-15.1,16.7h-7.4v-9.2H296.9z"/>
	</g>
	<path fill="#24CABC" d="M-387.8-255.6c-0.8,0.2-6.5,0.2-6.9,0.2c-1,0-1.9-0.8-1.9-3.2V-304h-7.8h-2.3h-8.4
		c-7.4,0-10.8,3.1-10.8,12.1c0,5.9,1.1,9.2,1.1,14.4c0,2.9-2,6.1-7,6.3v7.2c5,0.2,7,3.3,7,6.2c0,5.3-1,8.2-1,14.1
		c0,9.1,3.2,11.7,10.6,11.7h5.4v-6h-1.7c-3.4,0-4.5-1.3-4.5-5.9c0-4.5,0.3-8.6,0.3-13.7c0-6.4-2.2-8.8-6.2-9.8v-0.3
		c4-1,6.2-3.4,6.2-9.8c0-5-0.3-9.1-0.3-13.6c0-4.6,1-5.8,4.5-5.8h4.7v37.9c0,7.1,4,12.2,9.4,12.2c2.1,0,7.5,0,10,0L-387.8-255.6z"/>
	<path fill="#24CABC" d="M-369.6-286.5c10.4,0,15.9,7.5,15.9,18.2c0,1.7-0.2,3.3-0.4,4.2h-24.4c0.8,7,5.2,10.9,11.3,10.9
		c3.3,0,6.1-1,8.9-2.8l3,5.6c-3.7,2.4-8.3,4.1-13.1,4.1c-10.6,0-18.9-7.4-18.9-20.1C-387.3-278.9-378.6-286.5-369.6-286.5z
		 M-361.6-269.8c0-6.1-2.6-9.8-7.8-9.8c-4.5,0-8.4,3.4-9.2,9.8H-361.6z"/>
	<path fill="#24CABC" d="M-349.1-257.4c3.4,2.7,6.7,4.3,10.6,4.3c4.1,0,6.1-2,6.1-4.6c0-3.2-4.1-4.6-8.2-6.2
		c-5.1-1.9-10.8-4.8-10.8-11.2c0-6.7,5.4-11.5,14-11.5c5.3,0,9.6,2.2,12.7,4.6l-4.1,5.5c-2.7-2-5.4-3.3-8.4-3.3
		c-3.8,0-5.6,1.8-5.6,4.2c0,3,3.8,4.2,8,5.7c5.2,2,11,4.5,11,11.6c0,6.6-5.2,11.9-14.9,11.9c-5.2,0-10.8-2.3-14.5-5.3L-349.1-257.4z
		"/>
	<path fill="#24CABC" d="M-319.9-257.4c3.4,2.7,6.7,4.3,10.6,4.3c4.1,0,6.1-2,6.1-4.6c0-3.2-4.1-4.6-8.2-6.2
		c-5.1-1.9-10.8-4.8-10.8-11.2c0-6.7,5.4-11.5,14-11.5c5.3,0,9.6,2.2,12.7,4.6l-4.1,5.5c-2.7-2-5.4-3.3-8.4-3.3
		c-3.8,0-5.6,1.8-5.6,4.2c0,3,3.8,4.2,8,5.7c5.2,2,11,4.5,11,11.6c0,6.6-5.2,11.9-14.9,11.9c-5.2,0-10.8-2.3-14.5-5.3L-319.9-257.4z
		"/>
	<path fill="#24CABC" d="M-293-238.1c3.5,0,4.5-1.3,4.5-5.9c0-4.5-0.3-8.6-0.3-13.7c0-6.4,2-8.8,6.2-9.8v-0.3
		c-4.2-1-6.2-3.4-6.2-9.8c0-5,0.3-9.2,0.3-13.7c0-4.6-0.9-5.9-4.5-5.9h-1.6v-6.6h5.3c7.4,0,10.8,2.9,10.8,11.9
		c0,5.9-0.8,9.2-0.8,14.4c0,2.9,1.8,6,7.2,6.2v7.2c-5.5,0.2-7.2,3.3-7.2,6.2c0,5.3,0.8,8.4,0.8,14.4c0,9.1-3.4,11.9-10.8,11.9h-5.3
		v-6.6H-293z"/>
	<g display="none">
		<path display="inline" fill="#24CABC" d="M107.4,129.2c-1,0.2-8.8,0.2-9.3,0.2c-1.3,0-2.8-1.1-2.8-4.2V66h-9.9h-3H71.4
			c-9.8,0-14.2,3.6-14.2,15.5c0,7.8,1.4,12,1.4,18.9c0,3.9-3.3,7.9-9.3,8.1v9.6c6,0.2,9.3,4.3,9.3,8.2c0,7-1.3,10.5-1.3,18.4
			c0,12,4.3,15.2,14.1,15.2h5.9v-7h-1c-4.6,0-5.9-1.9-5.9-8c0-6,0.3-11.5,0.3-18.3c0-8.5-3.4-11.8-8.4-13.2v-0.4
			c5-1.3,8.4-4.6,8.4-13c0-6.6-0.4-12.3-0.4-18.2c0-6.1,1.4-7.9,6-7.9h5v50.5c0,9.5,5.9,16.1,13,16.1c2.8,0,10.2,0,13.6,0
			L107.4,129.2z"/>
		<path display="inline" fill="#24CABC" d="M131.6,88.3c13.8,0,21,9.9,21,24.1c0,2.3-0.2,4.3-0.5,5.6h-32.3c1,9.2,6.8,14.4,15,14.4
			c4.3,0,8.1-1.3,11.8-3.7l4,7.5c-4.9,3.2-11,5.5-17.4,5.5c-14.1,0-25-9.8-25-26.6C108.2,98.4,119.7,88.3,131.6,88.3z M142.2,110.4
			c0-8.1-3.4-12.9-10.3-12.9c-6,0-11.2,4.4-12.2,12.9H142.2z"/>
		<path display="inline" fill="#24CABC" d="M158.7,126.9c4.6,3.5,8.9,5.7,14.1,5.7c5.5,0,8.1-2.6,8.1-6.1c0-4.2-5.5-6.1-10.9-8.2
			c-6.7-2.5-14.3-6.3-14.3-14.8c0-8.9,7.1-15.2,18.5-15.2c7,0,12.7,2.9,16.9,6.1l-5.5,7.2c-3.5-2.6-7.1-4.3-11.2-4.3
			c-5.1,0-7.5,2.4-7.5,5.6c0,3.9,5.1,5.6,10.6,7.6c6.9,2.6,14.6,5.9,14.6,15.4c0,8.7-6.9,15.7-19.8,15.7c-6.9,0-14.3-3-19.2-7
			L158.7,126.9z"/>
		<path display="inline" fill="#24CABC" d="M197.5,126.9c4.6,3.5,8.9,5.7,14.1,5.7c5.5,0,8.1-2.6,8.1-6.1c0-4.2-5.5-6.1-10.9-8.2
			c-6.7-2.5-14.3-6.3-14.3-14.8c0-8.9,7.1-15.2,18.5-15.2c7,0,12.7,2.9,16.9,6.1l-5.5,7.2c-3.5-2.6-7.1-4.3-11.2-4.3
			c-5.1,0-7.5,2.4-7.5,5.6c0,3.9,5.1,5.6,10.6,7.6c6.9,2.6,14.6,5.9,14.6,15.4c0,8.7-6.9,15.7-19.8,15.7c-6.9,0-14.3-3-19.2-7
			L197.5,126.9z"/>
		<path display="inline" fill="#24CABC" d="M233,152.5c4.7,0,5.9-1.7,5.9-7.8c0-6-0.4-11.4-0.4-18.1c0-8.5,2.7-11.7,8.2-13v-0.4
			c-5.6-1.3-8.2-4.6-8.2-13c0-6.6,0.4-12.2,0.4-18.1c0-6.1-1.2-7.8-5.9-7.8h-2.1v-8.7h7c9.8,0,14.2,3.9,14.2,15.8
			c0,7.8-1.1,12.1-1.1,19c0,3.9,2.3,8,9.6,8.2v9.6c-7.2,0.2-9.6,4.3-9.6,8.2c0,7,1.1,11.1,1.1,19c0,12-4.5,15.8-14.2,15.8h-7v-8.7
			H233z"/>
	</g>
	<g display="none">
		<path display="inline" fill="#24CABC" d="M116.9,143.3l-69.2-31.8v-10.4L116.9,65v17.4l-46.7,23l46.7,20.4V143.3z"/>
		<path display="inline" fill="#24CABC" d="M184.1,51.8l-39.6,106.3h-20.1l39.6-106.3H184.1z"/>
		<path display="inline" fill="#24CABC" d="M191.2,125.9l46.7-20.4l-46.7-23V65l69.2,36.1v10.4l-69.2,31.8V125.9z"/>
	</g>
</g>
<g id="Layer_8">
	<path fill="#F1E0E7" d="M732,1.5c0,3-0.5,5.7-1.5,8.1c-1,2.4-2.5,4.4-4.5,6.1s-4.4,3-7.2,3.9c-2.9,0.9-6.1,1.4-9.8,1.4
		c-3.2,0-6.3-0.3-9.4-1c-3-0.7-5.8-1.7-8.3-3V3.8c1.5,0.7,2.9,1.4,4.4,2c1.5,0.7,3,1.2,4.6,1.8c1.5,0.5,3.1,0.9,4.6,1.2
		c1.5,0.3,3.1,0.5,4.6,0.5c1.6,0,2.9-0.2,4-0.5c1.1-0.3,2-0.8,2.7-1.5c0.7-0.6,1.2-1.4,1.5-2.2c0.3-0.9,0.5-1.8,0.5-2.9
		c0-1.2-0.3-2.4-0.8-3.3c-0.5-1-1.3-1.9-2.2-2.7c-1-0.8-2.1-1.7-3.5-2.4c-1.4-0.8-2.9-1.6-4.6-2.5c-1.4-0.7-3-1.6-4.7-2.7
		c-1.7-1-3.4-2.3-4.9-3.9c-1.5-1.5-2.8-3.4-3.9-5.6c-1-2.2-1.6-4.8-1.6-7.8c0-3,0.5-5.7,1.5-8c1-2.4,2.4-4.4,4.2-6
		c1.8-1.6,4-2.9,6.7-3.7c2.6-0.9,5.5-1.3,8.8-1.3c1.6,0,3.2,0.1,4.7,0.3c1.5,0.2,3.1,0.5,4.6,0.9c1.5,0.4,3,0.9,4.6,1.5
		c1.5,0.6,3.1,1.3,4.7,2l-4.6,11c-1.4-0.6-2.7-1.2-3.8-1.7c-1.2-0.5-2.3-0.9-3.5-1.2c-1.1-0.3-2.2-0.6-3.3-0.8
		c-1.1-0.2-2.2-0.3-3.3-0.3c-2.4,0-4.2,0.6-5.5,1.9c-1.3,1.3-1.9,2.9-1.9,5.1c0,1.1,0.2,2.1,0.6,3c0.4,0.9,1,1.7,1.8,2.4
		c0.8,0.8,1.9,1.5,3.2,2.3c1.3,0.8,2.9,1.7,4.8,2.7c2.3,1.2,4.4,2.5,6.3,3.7c1.9,1.3,3.6,2.7,5,4.2c1.4,1.5,2.5,3.3,3.2,5.2
		C731.7-3.4,732-1.1,732,1.5z"/>
	<path fill="#24CABC" d="M887,75.4h-82c-4.4,0-8-3.6-8-8v-82c0-4.4,3.6-8,8-8h82c4.4,0,8,3.6,8,8v82C895,71.8,891.4,75.4,887,75.4z"
		/>
	<rect x="431.3" y="25" fill="#24CABC" width="309.3" height="166.3"/>
	<path opacity="0.4" fill="#CCCCCC" d="M-222.6-79.7c0,3-0.5,5.7-1.5,8.1c-1,2.4-2.5,4.4-4.5,6.1c-2,1.7-4.4,3-7.2,3.9
		c-2.9,0.9-6.1,1.4-9.8,1.4c-3.2,0-6.3-0.3-9.4-1c-3-0.7-5.8-1.7-8.3-3v-13.2c1.5,0.7,2.9,1.4,4.4,2c1.5,0.7,3,1.2,4.6,1.8
		c1.5,0.5,3.1,0.9,4.6,1.2c1.5,0.3,3.1,0.5,4.6,0.5c1.6,0,2.9-0.2,4-0.5c1.1-0.3,2-0.8,2.7-1.5c0.7-0.6,1.2-1.4,1.5-2.2
		c0.3-0.9,0.5-1.8,0.5-2.9c0-1.2-0.3-2.4-0.8-3.3c-0.5-1-1.3-1.9-2.2-2.7c-1-0.8-2.1-1.7-3.5-2.4c-1.4-0.8-2.9-1.6-4.6-2.5
		c-1.4-0.7-3-1.6-4.7-2.7c-1.7-1-3.4-2.3-4.9-3.9c-1.5-1.5-2.8-3.4-3.9-5.6c-1-2.2-1.6-4.8-1.6-7.8c0-3,0.5-5.7,1.5-8
		c1-2.4,2.4-4.4,4.2-6c1.8-1.6,4-2.9,6.7-3.7c2.6-0.9,5.5-1.3,8.8-1.3c1.6,0,3.2,0.1,4.7,0.3c1.5,0.2,3.1,0.5,4.6,0.9
		c1.5,0.4,3,0.9,4.6,1.5c1.5,0.6,3.1,1.3,4.7,2l-4.6,11c-1.4-0.6-2.7-1.2-3.8-1.7c-1.2-0.5-2.3-0.9-3.5-1.2
		c-1.1-0.3-2.2-0.6-3.3-0.8c-1.1-0.2-2.2-0.3-3.3-0.3c-2.4,0-4.2,0.6-5.5,1.9c-1.3,1.3-1.9,2.9-1.9,5.1c0,1.1,0.2,2.1,0.6,3
		c0.4,0.9,1,1.7,1.8,2.4c0.8,0.8,1.9,1.5,3.2,2.3c1.3,0.8,2.9,1.7,4.8,2.7c2.3,1.2,4.4,2.5,6.3,3.7c1.9,1.3,3.6,2.7,5,4.2
		c1.4,1.5,2.5,3.3,3.2,5.2C-223-84.6-222.6-82.3-222.6-79.7z"/>
	<path fill="#FFFFFF" d="M227.4-178.3c0,3-0.5,5.7-1.5,8.1c-1,2.4-2.5,4.4-4.5,6.1c-2,1.7-4.4,3-7.2,3.9c-2.9,0.9-6.1,1.4-9.8,1.4
		c-3.2,0-6.3-0.3-9.4-1c-3-0.7-5.8-1.7-8.3-3V-176c1.5,0.7,2.9,1.4,4.4,2c1.5,0.7,3,1.2,4.6,1.8c1.5,0.5,3.1,0.9,4.6,1.2
		c1.5,0.3,3.1,0.5,4.6,0.5c1.6,0,2.9-0.2,4-0.5c1.1-0.3,2-0.8,2.7-1.5c0.7-0.6,1.2-1.4,1.5-2.2c0.3-0.9,0.5-1.8,0.5-2.9
		c0-1.2-0.3-2.4-0.8-3.3c-0.5-1-1.3-1.9-2.2-2.7c-1-0.8-2.1-1.7-3.5-2.4c-1.4-0.8-2.9-1.6-4.6-2.5c-1.4-0.7-3-1.6-4.7-2.7
		c-1.7-1-3.4-2.3-4.9-3.9c-1.5-1.5-2.8-3.4-3.9-5.6c-1-2.2-1.6-4.8-1.6-7.8c0-3,0.5-5.7,1.5-8c1-2.4,2.4-4.4,4.2-6
		c1.8-1.6,4-2.9,6.7-3.7c2.6-0.9,5.5-1.3,8.8-1.3c1.6,0,3.2,0.1,4.7,0.3c1.5,0.2,3.1,0.5,4.6,0.9c1.5,0.4,3,0.9,4.6,1.5
		c1.5,0.6,3.1,1.3,4.7,2l-4.6,11c-1.4-0.6-2.7-1.2-3.8-1.7c-1.2-0.5-2.3-0.9-3.5-1.2c-1.1-0.3-2.2-0.6-3.3-0.8
		c-1.1-0.2-2.2-0.3-3.3-0.3c-2.4,0-4.2,0.6-5.5,1.9c-1.3,1.3-1.9,2.9-1.9,5.1c0,1.1,0.2,2.1,0.6,3c0.4,0.9,1,1.7,1.8,2.4
		c0.8,0.8,1.9,1.5,3.2,2.3c1.3,0.8,2.9,1.7,4.8,2.7c2.3,1.2,4.4,2.5,6.3,3.7c1.9,1.3,3.6,2.7,5,4.2c1.4,1.5,2.5,3.3,3.2,5.2
		C227-183.2,227.4-180.9,227.4-178.3z"/>
	<polygon points="186.7,-162.8 243.4,-106.1 293.9,-155.5 227.1,-222.8 202,-216.2 200.1,-207 217.7,-172.6 	"/>
	<g>
		<linearGradient id="SVGID_1_" gradientUnits="userSpaceOnUse" x1="562.7989" y1="82.2416" x2="610.9961" y2="129.8034">
			<stop  offset="0" style="stop-color:#231F20;stop-opacity:0.2"/>
			<stop  offset="1" style="stop-color:#000000;stop-opacity:0"/>
		</linearGradient>
		<polygon fill="url(#SVGID_1_)" points="557,126.3 585.6,154.9 636.1,105.4 597.5,66.3 572.3,72.9 570.4,82.1 588,116.5 		"/>
		<path opacity="0.2" d="M597.7,111.8c0,3-0.5,5.7-1.5,8.1c-1,2.4-2.5,4.4-4.5,6.1c-2,1.7-4.4,3-7.2,3.9c-2.9,0.9-6.1,1.4-9.8,1.4
			c-3.2,0-6.3-0.3-9.4-1c-3-0.7-5.8-1.7-8.3-3v-13.2c1.5,0.7,2.9,1.4,4.4,2c1.5,0.7,3,1.2,4.6,1.8c1.5,0.5,3.1,0.9,4.6,1.2
			c1.5,0.3,3.1,0.5,4.6,0.5c1.6,0,2.9-0.2,4-0.5c1.1-0.3,2-0.8,2.7-1.5c0.7-0.6,1.2-1.4,1.5-2.2c0.3-0.9,0.5-1.8,0.5-2.9
			c0-1.2-0.3-2.4-0.8-3.3c-0.5-1-1.3-1.9-2.2-2.7c-1-0.8-2.1-1.7-3.5-2.4c-1.4-0.8-2.9-1.6-4.6-2.5c-1.4-0.7-3-1.6-4.7-2.7
			c-1.7-1-3.4-2.3-4.9-3.9c-1.5-1.5-2.8-3.4-3.9-5.6c-1-2.2-1.6-4.8-1.6-7.8c0-3,0.5-5.7,1.5-8c1-2.4,2.4-4.4,4.2-6
			c1.8-1.6,4-2.9,6.7-3.7c2.6-0.9,5.5-1.3,8.8-1.3c1.6,0,3.2,0.1,4.7,0.3c1.5,0.2,3.1,0.5,4.6,0.9c1.5,0.4,3,0.9,4.6,1.5
			c1.5,0.6,3.1,1.3,4.7,2l-4.6,11c-1.4-0.6-2.7-1.2-3.8-1.7c-1.2-0.5-2.3-0.9-3.5-1.2c-1.1-0.3-2.2-0.6-3.3-0.8
			c-1.1-0.2-2.2-0.3-3.3-0.3c-2.4,0-4.2,0.6-5.5,1.9c-1.3,1.3-1.9,2.9-1.9,5.1c0,1.1,0.2,2.1,0.6,3c0.4,0.9,1,1.7,1.8,2.4
			c0.8,0.8,1.9,1.5,3.2,2.3c1.3,0.8,2.9,1.7,4.8,2.7c2.3,1.2,4.4,2.5,6.3,3.7c1.9,1.3,3.6,2.7,5,4.2c1.4,1.5,2.5,3.3,3.2,5.2
			C597.4,106.9,597.7,109.2,597.7,111.8z"/>
		<path fill="#F1F1FF" d="M597.7,110.8c0,3-0.5,5.7-1.5,8.1c-1,2.4-2.5,4.4-4.5,6.1c-2,1.7-4.4,3-7.2,3.9c-2.9,0.9-6.1,1.4-9.8,1.4
			c-3.2,0-6.3-0.3-9.4-1c-3-0.7-5.8-1.7-8.3-3v-13.2c1.5,0.7,2.9,1.4,4.4,2c1.5,0.7,3,1.2,4.6,1.8c1.5,0.5,3.1,0.9,4.6,1.2
			c1.5,0.3,3.1,0.5,4.6,0.5c1.6,0,2.9-0.2,4-0.5c1.1-0.3,2-0.8,2.7-1.5c0.7-0.6,1.2-1.4,1.5-2.2c0.3-0.9,0.5-1.8,0.5-2.9
			c0-1.2-0.3-2.4-0.8-3.3c-0.5-1-1.3-1.9-2.2-2.7c-1-0.8-2.1-1.7-3.5-2.4c-1.4-0.8-2.9-1.6-4.6-2.5c-1.4-0.7-3-1.6-4.7-2.7
			c-1.7-1-3.4-2.3-4.9-3.9c-1.5-1.5-2.8-3.4-3.9-5.6c-1-2.2-1.6-4.8-1.6-7.8c0-3,0.5-5.7,1.5-8c1-2.4,2.4-4.4,4.2-6
			c1.8-1.6,4-2.9,6.7-3.7c2.6-0.9,5.5-1.3,8.8-1.3c1.6,0,3.2,0.1,4.7,0.3c1.5,0.2,3.1,0.5,4.6,0.9c1.5,0.4,3,0.9,4.6,1.5
			c1.5,0.6,3.1,1.3,4.7,2l-4.6,11c-1.4-0.6-2.7-1.2-3.8-1.7c-1.2-0.5-2.3-0.9-3.5-1.2c-1.1-0.3-2.2-0.6-3.3-0.8
			c-1.1-0.2-2.2-0.3-3.3-0.3c-2.4,0-4.2,0.6-5.5,1.9c-1.3,1.3-1.9,2.9-1.9,5.1c0,1.1,0.2,2.1,0.6,3c0.4,0.9,1,1.7,1.8,2.4
			c0.8,0.8,1.9,1.5,3.2,2.3c1.3,0.8,2.9,1.7,4.8,2.7c2.3,1.2,4.4,2.5,6.3,3.7c1.9,1.3,3.6,2.7,5,4.2c1.4,1.5,2.5,3.3,3.2,5.2
			C597.4,105.9,597.7,108.2,597.7,110.8z"/>
	</g>
	<path opacity="0.2" d="M866.4,39.9c0,3-0.5,5.7-1.5,8.1c-1,2.4-2.5,4.4-4.5,6.1c-2,1.7-4.4,3-7.2,3.9c-2.9,0.9-6.1,1.4-9.8,1.4
		c-3.2,0-6.3-0.3-9.4-1c-3-0.7-5.8-1.7-8.3-3V42.2c1.5,0.7,2.9,1.4,4.4,2c1.5,0.7,3,1.2,4.6,1.8c1.5,0.5,3.1,0.9,4.6,1.2
		c1.5,0.3,3.1,0.5,4.6,0.5c1.6,0,2.9-0.2,4-0.5c1.1-0.3,2-0.8,2.7-1.5c0.7-0.6,1.2-1.4,1.5-2.2c0.3-0.9,0.5-1.8,0.5-2.9
		c0-1.2-0.3-2.4-0.8-3.3c-0.5-1-1.3-1.9-2.2-2.7c-1-0.8-2.1-1.7-3.5-2.4c-1.4-0.8-2.9-1.6-4.6-2.5c-1.4-0.7-3-1.6-4.7-2.7
		c-1.7-1-3.4-2.3-4.9-3.9c-1.5-1.5-2.8-3.4-3.9-5.6c-1-2.2-1.6-4.8-1.6-7.8c0-3,0.5-5.7,1.5-8c1-2.4,2.4-4.4,4.2-6
		c1.8-1.6,4-2.9,6.7-3.7c2.6-0.9,5.5-1.3,8.8-1.3c1.6,0,3.2,0.1,4.7,0.3c1.5,0.2,3.1,0.5,4.6,0.9c1.5,0.4,3,0.9,4.6,1.5
		c1.5,0.6,3.1,1.3,4.7,2l-4.6,11c-1.4-0.6-2.7-1.2-3.8-1.7c-1.2-0.5-2.3-0.9-3.5-1.2c-1.1-0.3-2.2-0.6-3.3-0.8
		c-1.1-0.2-2.2-0.3-3.3-0.3c-2.4,0-4.2,0.6-5.5,1.9c-1.3,1.3-1.9,2.9-1.9,5.1c0,1.1,0.2,2.1,0.6,3c0.4,0.9,1,1.7,1.8,2.4
		c0.8,0.8,1.9,1.5,3.2,2.3c1.3,0.8,2.9,1.7,4.8,2.7c2.3,1.2,4.4,2.5,6.3,3.7c1.9,1.3,3.6,2.7,5,4.2c1.4,1.5,2.5,3.3,3.2,5.2
		C866,35,866.4,37.3,866.4,39.9z"/>
	<polygon fill="#F1D0D6" points="300.4,-68.2 298.4,-70.2 293.9,-59.2 295.9,-57.2 	"/>
	<polygon fill="#F1E0E7" points="691.3,17 689.3,15 689.3,1.8 691.3,16 	"/>
	<path fill="#F1F1FF" d="M730-0.5c0,3-0.5,5.7-1.5,8.1c-1,2.4-2.5,4.4-4.5,6.1s-4.4,3-7.2,3.9c-2.9,0.9-6.1,1.4-9.8,1.4
		c-3.2,0-6.3-0.3-9.4-1c-3-0.7-5.8-1.7-8.3-3V1.8c1.5,0.7,2.9,1.4,4.4,2c1.5,0.7,3,1.2,4.6,1.8c1.5,0.5,3.1,0.9,4.6,1.2
		c1.5,0.3,3.1,0.5,4.6,0.5c1.6,0,2.9-0.2,4-0.5c1.1-0.3,2-0.8,2.7-1.5c0.7-0.6,1.2-1.4,1.5-2.2c0.3-0.9,0.5-1.8,0.5-2.9
		c0-1.2-0.3-2.4-0.8-3.3c-0.5-1-1.3-1.9-2.2-2.7c-1-0.8-2.1-1.7-3.5-2.4c-1.4-0.8-2.9-1.6-4.6-2.5c-1.4-0.7-3-1.6-4.7-2.7
		c-1.7-1-3.4-2.3-4.9-3.9c-1.5-1.5-2.8-3.4-3.9-5.6c-1-2.2-1.6-4.8-1.6-7.8c0-3,0.5-5.7,1.5-8c1-2.4,2.4-4.4,4.2-6
		c1.8-1.6,4-2.9,6.7-3.7c2.6-0.9,5.5-1.3,8.8-1.3c1.6,0,3.2,0.1,4.7,0.3c1.5,0.2,3.1,0.5,4.6,0.9c1.5,0.4,3,0.9,4.6,1.5
		c1.5,0.6,3.1,1.3,4.7,2l-4.6,11c-1.4-0.6-2.7-1.2-3.8-1.7c-1.2-0.5-2.3-0.9-3.5-1.2c-1.1-0.3-2.2-0.6-3.3-0.8
		c-1.1-0.2-2.2-0.3-3.3-0.3c-2.4,0-4.2,0.6-5.5,1.9c-1.3,1.3-1.9,2.9-1.9,5.1c0,1.1,0.2,2.1,0.6,3c0.4,0.9,1,1.7,1.8,2.4
		c0.8,0.8,1.9,1.5,3.2,2.3c1.3,0.8,2.9,1.7,4.8,2.7c2.3,1.2,4.4,2.5,6.3,3.7c1.9,1.3,3.6,2.7,5,4.2c1.4,1.5,2.5,3.3,3.2,5.2
		C729.7-5.4,730-3.1,730-0.5z"/>
	<path fill="#FFFFFF" d="M866.4,38.9c0,3-0.5,5.7-1.5,8.1c-1,2.4-2.5,4.4-4.5,6.1c-2,1.7-4.4,3-7.2,3.9c-2.9,0.9-6.1,1.4-9.8,1.4
		c-3.2,0-6.3-0.3-9.4-1c-3-0.7-5.8-1.7-8.3-3V41.2c1.5,0.7,2.9,1.4,4.4,2c1.5,0.7,3,1.2,4.6,1.8c1.5,0.5,3.1,0.9,4.6,1.2
		c1.5,0.3,3.1,0.5,4.6,0.5c1.6,0,2.9-0.2,4-0.5c1.1-0.3,2-0.8,2.7-1.5c0.7-0.6,1.2-1.4,1.5-2.2c0.3-0.9,0.5-1.8,0.5-2.9
		c0-1.2-0.3-2.4-0.8-3.3c-0.5-1-1.3-1.9-2.2-2.7c-1-0.8-2.1-1.7-3.5-2.4c-1.4-0.8-2.9-1.6-4.6-2.5c-1.4-0.7-3-1.6-4.7-2.7
		c-1.7-1-3.4-2.3-4.9-3.9c-1.5-1.5-2.8-3.4-3.9-5.6c-1-2.2-1.6-4.8-1.6-7.8c0-3,0.5-5.7,1.5-8c1-2.4,2.4-4.4,4.2-6
		c1.8-1.6,4-2.9,6.7-3.7c2.6-0.9,5.5-1.3,8.8-1.3c1.6,0,3.2,0.1,4.7,0.3c1.5,0.2,3.1,0.5,4.6,0.9c1.5,0.4,3,0.9,4.6,1.5
		c1.5,0.6,3.1,1.3,4.7,2l-4.6,11c-1.4-0.6-2.7-1.2-3.8-1.7c-1.2-0.5-2.3-0.9-3.5-1.2c-1.1-0.3-2.2-0.6-3.3-0.8
		c-1.1-0.2-2.2-0.3-3.3-0.3c-2.4,0-4.2,0.6-5.5,1.9c-1.3,1.3-1.9,2.9-1.9,5.1c0,1.1,0.2,2.1,0.6,3c0.4,0.9,1,1.7,1.8,2.4
		c0.8,0.8,1.9,1.5,3.2,2.3c1.3,0.8,2.9,1.7,4.8,2.7c2.3,1.2,4.4,2.5,6.3,3.7c1.9,1.3,3.6,2.7,5,4.2c1.4,1.5,2.5,3.3,3.2,5.2
		C866,34,866.4,36.3,866.4,38.9z"/>
	<path fill="#1C9F94" d="M726.1,140.6h-82c-4.4,0-8-3.6-8-8v-82c0-4.4,3.6-8,8-8h82c4.4,0,8,3.6,8,8v82
		C734.1,137,730.5,140.6,726.1,140.6z"/>
	<path opacity="0.2" d="M705.4,105.1c0,3-0.5,5.7-1.5,8.1c-1,2.4-2.5,4.4-4.5,6.1s-4.4,3-7.2,3.9c-2.9,0.9-6.1,1.4-9.8,1.4
		c-3.2,0-6.3-0.3-9.4-1c-3-0.7-5.8-1.7-8.3-3v-13.2c1.5,0.7,2.9,1.4,4.4,2c1.5,0.7,3,1.2,4.6,1.8c1.5,0.5,3.1,0.9,4.6,1.2
		c1.5,0.3,3.1,0.5,4.6,0.5c1.6,0,2.9-0.2,4-0.5c1.1-0.3,2-0.8,2.7-1.5c0.7-0.6,1.2-1.4,1.5-2.2c0.3-0.9,0.5-1.8,0.5-2.9
		c0-1.2-0.3-2.4-0.8-3.3c-0.5-1-1.3-1.9-2.2-2.7c-1-0.8-2.1-1.7-3.5-2.4c-1.4-0.8-2.9-1.6-4.6-2.5c-1.4-0.7-3-1.6-4.7-2.7
		c-1.7-1-3.4-2.3-4.9-3.9c-1.5-1.5-2.8-3.4-3.9-5.6c-1-2.2-1.6-4.8-1.6-7.8c0-3,0.5-5.7,1.5-8c1-2.4,2.4-4.4,4.2-6
		c1.8-1.6,4-2.9,6.7-3.7c2.6-0.9,5.5-1.3,8.8-1.3c1.6,0,3.2,0.1,4.7,0.3c1.5,0.2,3.1,0.5,4.6,0.9c1.5,0.4,3,0.9,4.6,1.5
		c1.5,0.6,3.1,1.3,4.7,2l-4.6,11c-1.4-0.6-2.7-1.2-3.8-1.7c-1.2-0.5-2.3-0.9-3.5-1.2c-1.1-0.3-2.2-0.6-3.3-0.8
		c-1.1-0.2-2.2-0.3-3.3-0.3c-2.4,0-4.2,0.6-5.5,1.9c-1.3,1.3-1.9,2.9-1.9,5.1c0,1.1,0.2,2.1,0.6,3c0.4,0.9,1,1.7,1.8,2.4
		c0.8,0.8,1.9,1.5,3.2,2.3c1.3,0.8,2.9,1.7,4.8,2.7c2.3,1.2,4.4,2.5,6.3,3.7c1.9,1.3,3.6,2.7,5,4.2c1.4,1.5,2.5,3.3,3.2,5.2
		C705.1,100.2,705.4,102.5,705.4,105.1z"/>
	<path fill="#FFFFFF" d="M705.4,104.1c0,3-0.5,5.7-1.5,8.1c-1,2.4-2.5,4.4-4.5,6.1s-4.4,3-7.2,3.9c-2.9,0.9-6.1,1.4-9.8,1.4
		c-3.2,0-6.3-0.3-9.4-1c-3-0.7-5.8-1.7-8.3-3v-13.2c1.5,0.7,2.9,1.4,4.4,2c1.5,0.7,3,1.2,4.6,1.8c1.5,0.5,3.1,0.9,4.6,1.2
		c1.5,0.3,3.1,0.5,4.6,0.5c1.6,0,2.9-0.2,4-0.5c1.1-0.3,2-0.8,2.7-1.5c0.7-0.6,1.2-1.4,1.5-2.2c0.3-0.9,0.5-1.8,0.5-2.9
		c0-1.2-0.3-2.4-0.8-3.3c-0.5-1-1.3-1.9-2.2-2.7c-1-0.8-2.1-1.7-3.5-2.4c-1.4-0.8-2.9-1.6-4.6-2.5c-1.4-0.7-3-1.6-4.7-2.7
		c-1.7-1-3.4-2.3-4.9-3.9c-1.5-1.5-2.8-3.4-3.9-5.6c-1-2.2-1.6-4.8-1.6-7.8c0-3,0.5-5.7,1.5-8c1-2.4,2.4-4.4,4.2-6
		c1.8-1.6,4-2.9,6.7-3.7c2.6-0.9,5.5-1.3,8.8-1.3c1.6,0,3.2,0.1,4.7,0.3c1.5,0.2,3.1,0.5,4.6,0.9c1.5,0.4,3,0.9,4.6,1.5
		c1.5,0.6,3.1,1.3,4.7,2l-4.6,11c-1.4-0.6-2.7-1.2-3.8-1.7c-1.2-0.5-2.3-0.9-3.5-1.2c-1.1-0.3-2.2-0.6-3.3-0.8
		c-1.1-0.2-2.2-0.3-3.3-0.3c-2.4,0-4.2,0.6-5.5,1.9c-1.3,1.3-1.9,2.9-1.9,5.1c0,1.1,0.2,2.1,0.6,3c0.4,0.9,1,1.7,1.8,2.4
		c0.8,0.8,1.9,1.5,3.2,2.3c1.3,0.8,2.9,1.7,4.8,2.7c2.3,1.2,4.4,2.5,6.3,3.7c1.9,1.3,3.6,2.7,5,4.2c1.4,1.5,2.5,3.3,3.2,5.2
		C705.1,99.2,705.4,101.5,705.4,104.1z"/>
</g>
</svg>
